<svg xmlns="http://www.w3.org/2000/svg" width="74.095" height="30" viewBox="0 0 74.095 30">
  <g transform="translate(-44 -28)">
    <path fill="#243441" d="M6.194,29.97C.56,29.141-.949,11.662.537,5.976,2.334-.9,11.464-.131,15.3.211A12.111,12.111,0,0,1,26.1,12.152c0,6.066-5.618,10.957-11.135,11.438-4.881.426-5.239,6.9-8.775,6.38" transform="translate(44 28)" />
    <path fill="#243441" d="M18.668,19.816a1.418,1.418,0,0,1-1.266-.775l-7.36-14.5-7.359,14.5a1.416,1.416,0,0,1-2.53-1.272L8.777.774a1.42,1.42,0,0,1,2.53,0l8.624,16.994a1.413,1.413,0,0,1-1.264,2.047" transform="translate(69.847 33.028)" />
    <path fill="#0AFFEF" d="M1.417,0A1.417,1.417,0,0,0,0,1.417H0A1.417,1.417,0,0,0,1.417,2.834h8.654c1.979,0,3.573,2.346,3.573,4.288h0c0,1.942-1.594,4.286-3.573,4.286H1.417A1.417,1.417,0,0,0,0,12.826H0v5.665a1.417,1.417,0,0,0,1.417,1.417h0a1.417,1.417,0,0,0,1.417-1.417h0V14.243h7.237c3.668,0,6.407-3.759,6.407-7.121h0C16.478,3.76,13.739,0,10.071,0H1.417Z" transform="translate(48.777 33.028)" />
    <path fill="#243441" d="M1.417,0A1.414,1.414,0,0,0,0,1.41H0A1.414,1.414,0,0,0,1.417,2.821h8.654c1.979,0,3.573,2.335,3.573,4.268h0c0,1.933-1.594,4.266-3.573,4.266H1.417A1.414,1.414,0,0,0,0,12.766H0v5.639a1.414,1.414,0,0,0,1.417,1.411h0a1.414,1.414,0,0,0,1.417-1.411h0V14.177h7.237c3.668,0,6.407-3.742,6.407-7.088h0C16.478,3.743,13.739,0,10.071,0H1.417Z" transform="translate(93.971 33.028)" />
    <rect fill="#243441" width="2.585" height="19.816" rx="1.292" transform="translate(115.51 32.746)" />
  </g>
</svg>
