<svg width="24" height="24" viewBox="0 0 24 24" fill="none" xmlns="http://www.w3.org/2000/svg">
  <path d="M7.13859 22.6993C3.12534 22.1086 2.05044 9.65512 3.10896 5.60395C4.38901 0.704919 10.8925 1.25282 13.625 1.49649C15.7269 1.72533 17.6715 2.7182 19.0897 4.28657C20.5079 5.85494 21.3009 7.88961 21.3182 10.0042C21.3182 14.3262 17.3163 17.8109 13.3864 18.1536C9.90954 18.4571 9.65452 23.0697 7.13574 22.6993" fill="#243441" />
  <path d="M7.13876 4.92969C6.87106 4.92969 6.61432 5.03605 6.42503 5.22539C6.23574 5.41472 6.12939 5.67152 6.12939 5.93928V5.93928C6.12939 6.20703 6.23574 6.46383 6.42503 6.65316C6.61432 6.8425 6.87106 6.94886 7.13876 6.94886H13.3032C14.7129 6.94886 15.8484 8.62035 15.8484 10.004C15.8484 11.3876 14.7129 13.0577 13.3032 13.0577H7.13876C7.00615 13.0577 6.87484 13.0838 6.75233 13.1346C6.62982 13.1854 6.51852 13.2598 6.42478 13.3536C6.33104 13.4475 6.25671 13.5588 6.20602 13.6814C6.15534 13.804 6.1293 13.9353 6.12939 14.068V14.068V18.1042C6.12939 18.372 6.23574 18.6288 6.42503 18.8181C6.61432 19.0074 6.87106 19.1138 7.13876 19.1138V19.1138C7.40646 19.1138 7.6632 19.0074 7.85249 18.8181C8.04178 18.6288 8.14813 18.372 8.14813 18.1042V18.1042V15.0776H13.3032C15.916 15.0776 17.8671 12.3994 17.8671 10.004C17.8671 7.60862 15.916 4.92969 13.3032 4.92969H7.13876Z" fill="#0AFFEF" />
</svg>
