<svg xmlns="http://www.w3.org/2000/svg" width="43.045" height="45.856" viewBox="0 0 43.045 45.856"><defs><style>.a{fill:#0affef;}</style></defs><g transform="translate(-47.923 -15.64) rotate(14)"><g transform="translate(60.68 0)"><path class="a" d="M63.424,66.52a1.393,1.393,0,1,0-2.7.685l9.1,35.91a1.393,1.393,0,0,0,2.7-.684Z" transform="translate(-60.68 -58.88)"/><path class="a" d="M129.2,17.753q-2.225-8.215-4.451-16.43a1.5,1.5,0,0,0-1.5-1.292c-8.341-.6-13.818,7.7-22.16,7.1-.658-.081-1.081.262-.921.854,1.484,5.477,2.956,10.957,4.451,16.43a1.65,1.65,0,0,0,1.5,1.292c8.341.6,13.819-7.7,22.16-7.1C128.933,18.689,129.356,18.346,129.2,17.753ZM122.649,2.1l1.228,4.533a15.054,15.054,0,0,0-4.944,1.027l-1.228-4.533A15.055,15.055,0,0,1,122.649,2.1ZM105.461,19.039q-.7-2.575-1.4-5.151a14.9,14.9,0,0,0,5.193-1.13L108.03,8.226a50.028,50.028,0,0,0,4.833-2.568l1.228,4.533a50.053,50.053,0,0,1-4.833,2.569l1.4,5.151A14.9,14.9,0,0,1,105.461,19.039Zm6.439,3.47-1.246-4.6a49.556,49.556,0,0,0,4.8-2.549l1.246,4.6A49.52,49.52,0,0,1,111.9,22.509Zm3.586-7.168-1.4-5.151a44.933,44.933,0,0,1,4.842-2.532l1.4,5.151A45.006,45.006,0,0,0,115.486,15.341ZM121.6,17.4l-1.246-4.6a15.028,15.028,0,0,1,4.915-1.015l1.246,4.6A15.027,15.027,0,0,0,121.6,17.4Z" transform="translate(-96.157 0)"/></g></g></svg>