<?xml version="1.0" standalone="no"?>
<svg version="1.0" xmlns="http://www.w3.org/2000/svg" width="256.000000pt" height="256.000000pt" viewBox="0 0 256.000000 256.000000" preserveAspectRatio="xMidYMid meet">
  <g transform="translate(0.000000,256.000000) scale(0.100000,-0.100000)" fill="#000000" stroke="none">
    <path d="M884 2531 c-324 -57 -521 -199 -600 -431 -99 -295 -78 -980 46 -1466 68 -267 154 -449 258 -546 62 -58 101 -78 167 -85 109 -11 170 34 325 242 157 212 239 271 420 300 286 45 483 146 671 342 141 149 226 308 259 487 17 92 8 287 -19 388 -93 357 -367 642 -715 742 -163 48 -609 62 -812 27z m653 -411 c203 -27 382 -188 458 -410 24 -72 29 -101 29 -190 0 -88 -5 -118 -27 -181 -68 -197 -195 -335 -362 -394 -69 -24 -74 -25 -417 -25 l-347 0 -3 -204 c-3 -189 -5 -207 -24 -233 -43 -58 -134 -62 -185 -7 l-24 26 -3 276 c-3 287 0 312 40 349 19 17 52 18 442 23 404 5 423 6 466 26 116 55 210 210 210 344 0 135 -92 285 -210 343 -44 21 -57 22 -460 27 -450 5 -447 5 -476 62 -33 64 2 147 70 167 44 13 728 13 823 1z" />
  </g>
</svg>
